# xmcd
#
# Track frame offsets:
#	150
#	5478
#	21005
#	37090
#	54937
#	74847
#	91649
#	114646
#	132878
#	148069
#	167739
#	185126
#	202201
#
# Disc length: 2886 seconds
#
# Revision: 0
# Processed by: cddbd v1.4PL0 Copyright (c) Steve Scherf et al.
# Submitted via: dBpowerAMP V4.0
#
DISCID=bf0b440d
DTITLE=Papa and Moni-K - Jurnal
DYEAR=2003
DGENRE=Romanian Pop
TTITLE0=Intro (Totul Despre Jurnal)
TTITLE1=Ai Sa-ntelegi
TTITLE2=Intr-o Zi
TTITLE3=Anotimpuri
TTITLE4=Oare Cat?
TTITLE5=Beau Sa Uit
TTITLE6=Cine Stie?
TTITLE7=Nopti La Rand
TTITLE8=La Fiecare Pas
TTITLE9=Fa-ma Sa Simt
TTITLE10=Te Caut
TTITLE11=Cateodata
TTITLE12=De Ce?
EXTD=
EXTT0=
EXTT1=
EXTT2=
EXTT3=
EXTT4=
EXTT5=
EXTT6=
EXTT7=
EXTT8=
EXTT9=
EXTT10=
EXTT11=
EXTT12=
PLAYORDER=
